<svg id="Layer_1" xmlns="http://www.w3.org/2000/svg" viewBox="0 0 50 50"><style>.st0{fill:#2ba8e0}.st2{fill:#18234c}.st4{fill:#17224b;stroke:#17224b;stroke-width:3.8456;stroke-linecap:round;stroke-linejoin:round;stroke-miterlimit:10}.st5{fill:#fff}.st6{fill:#b8e2f8}.st8{fill:#fdce07}</style><path class="st0" d="M3.4 26.3C4.9 17.8 17.7 3 35 6.4c11.8 2.4 13.4 13.9 1.7 17.4-13.4 4.1-23.4-3.4-33.3 2.5z"/><linearGradient id="SVGID_1_" gradientUnits="userSpaceOnUse" x1="2701.858" y1="2670.713" x2="2741.807" y2="2670.713" gradientTransform="matrix(-1.0186 -.03 .0426 -.8199 2682.968 2287.706)"><stop offset=".291" stop-color="#fff"/><stop offset="1" stop-color="#27265f"/></linearGradient><path d="M3.4 26.3C4.9 17.8 17.7 3 35 6.4c11.8 2.4 13.4 13.9 1.7 17.4-13.4 4.1-23.4-3.4-33.3 2.5z" fill="url(#SVGID_1_)"/><path class="st2" d="M1.5 28.9c5-11.6 18.3-24.4 34.8-19.1 11.2 3.6 11.3 15.2-.5 17.5-11.4 2.1-17.9 3.2-26.6 2.2-1.7-.2-4.2-5.6-7.7-.6z"/><path class="st0" d="M46.4 19c-1.5 8.8-14.3 24.1-31.6 20.5C3 37.1 1.4 25.2 13 21.6c13.4-4.2 23.4 3.5 33.4-2.6z"/><linearGradient id="SVGID_2_" gradientUnits="userSpaceOnUse" x1="-22.276" y1="-52.307" x2="17.657" y2="-52.307" gradientTransform="matrix(1.0186 .03 -.0426 .8199 25.587 72.278)"><stop offset=".291" stop-color="#fff"/><stop offset="1" stop-color="#27265f"/></linearGradient><path d="M46.4 19c-1.5 8.8-14.3 24.1-31.6 20.5C3 37.1 1.4 25.2 13 21.6c13.4-4.2 23.4 3.5 33.4-2.6z" fill="url(#SVGID_2_)"/><path class="st2" d="M48.3 16.3c-5.1 12-18.4 25.2-34.9 19.7-11.2-3.7-11.8-15.6.6-17.9 13.6-2.6 24.3-4.3 34.3-1.8z"/><path class="st2" d="M8.1 18.1L7 26.5l-1.4 1-1.5-3.1-.6 4.6-1.6 1.2L3 21.8l1.5-1.1 1.4 3.1.6-4.6 1.6-1.1z"/><path class="st2" d="M.8 32l1.4-10.6 2.5-1.9.7 1.5.3-2.3 3.4-2.5-1.4 10.7-2.5 1.8-.8-1.6-.3 2.4L.8 32zm3.6-8.8l1.5 3.1.3-.3.2-1.6-.9.7L4.1 22l-.4.3-.2 1.5.9-.6z"/><path class="st2" d="M12.4 22.4l-.1 1.3-1.4.8V24h-.1c-.4.7-.8 1.1-1.4 1.5-1.1.6-1.6-.1-1.6-1.3 0-2.3 1.2-4.6 3.3-5.8.4-.2 1.2-.5 2-.6l-.7 4.6zm-1.2-2.7c-.1 0-.3.1-.5.2-.9.4-1.2 2.1-1.2 3.1 0 .5.1.9.6.7.3-.2.6-.6.7-1l.4-3z"/><path class="st2" d="M8.6 26.4c-.3 0-.6-.1-.8-.2-.5-.4-.8-1.1-.8-2.1 0-2.8 1.4-5.3 3.7-6.5.5-.3 1.4-.6 2.3-.7l1-.1-.8 5.6-.1 1.7-2.4 1.3c-.3.3-.6.5-.9.6-.5.3-.9.4-1.2.4zm.1-3.5c-.1.4-.1.8-.1 1.2 0 .4.1.6.1.7.1 0 .1 0 .3-.1.1-.1.3-.1.4-.2h-.1c-.6-.5-.6-1.2-.6-1.6 0 .1 0 0 0 0zm3.4-4.1c-.1 0-.2.1-.2.1l.2-.1z"/><path class="st2" d="M14.7 22.8l-1.8.7.8-5v-1.1l1.4-.6v.8c.4-.9 1-1.4 1.4-1.5.3-.1.6-.2.9-.1l-.4 1.7c-.2 0-.5 0-.7.1-.5.2-.8.6-.9 1.2l-.7 3.8z"/><path class="st2" d="M11.9 24.7l1-6.4.1-1.6 2.6-1c.2-.2.5-.4.8-.5.3-.1.9-.3 1.4-.1l.8.2-.9 3.2-.7-.1h-.3c-.2.1-.4.3-.4.6l-.7 4.2-3.7 1.5zm2.5-6l-.5 3.5h.1l.5-3.1-.1-.4z"/><path class="st2" d="M21.6 19.3l-.1 1.2-1.5.5v-.5h-.1c-.4.6-.9 1-1.6 1.2-1.2.3-1.7-.4-1.7-1.6 0-2.3 1.3-4.4 3.6-5.1.5-.1 1.3-.3 2.1-.2l-.7 4.5zm-1.2-3c-.1 0-.3 0-.5.1-1 .3-1.4 2-1.4 2.9 0 .5.1 1 .7.8.4-.1.6-.4.8-.9l.4-2.9z"/><path class="st2" d="M17.8 22.6c-.5 0-.9-.2-1.1-.4-.4-.3-.9-.9-.9-2.2 0-2.8 1.6-5.1 4.2-5.8.6-.2 1.5-.3 2.5-.2l.8.1-.9 5.3-.1 1.8-2.8.8c-.3.2-.6.3-1 .5-.2 0-.5.1-.7.1zm0-4.6c-.3.6-.4 1.3-.4 2 0 .6.1.8.2.9.1.1.3.1.5 0 .1 0 .2-.1.3-.1-.1 0-.1-.1-.2-.1-.5-.4-.5-1-.5-1.4 0-.4 0-.8.1-1.3zm3 1.6v.4l.1-.8.6-3.6H21l.3.1-.6 3.7c0 .1 0 .1-.1.2h.2z"/><path class="st2" d="M22.1 20.5l.8-4.8.1-1.2 1.6-.3v.6c.4-.6 1-1 1.8-1.1 1-.2 1.5.2 1.5 1.1 0 .2 0 .4-.1.6l-.7 4.1-1.9.3.6-3.5c0-.2.1-.5.1-.7 0-.2-.1-.5-.4-.4-.5.1-.8.5-.9 1l-.6 3.9-1.9.4z"/><path class="st2" d="M21.2 21.4l1-5.9.1-1.8 3-.5c.3-.2.7-.3 1-.4.8-.1 1.4 0 1.8.4.3.2.6.7.6 1.6 0 .3 0 .6-.1.8l-.8 4.6-3.6.6-3 .6zm2.6-6.2v.6l-.6 3.7h.2l.5-3.1-.1-1.2zm2.4-.6c.1 0 .2.1.2.1.3.2.4.6.4 1 0 .3-.1.5-.1.7v.1l-.4 2.4h.2l.6-3.5v-.5c0-.2-.1-.3-.1-.3s-.2-.1-.5 0c-.1-.1-.2 0-.3 0z"/><g><path class="st2" d="M29 13.6l1.9-.2-1.1 6.2c-.2 1.2-.5 2.3-2.3 2.5-.6.1-1.3 0-1.8-.3l.7-1.4c.2.1.5.2.7.1.4 0 .6-.3.7-.9l1.2-6zm1.4-2.7c.5-.1.9.3.9.7 0 .6-.5 1.1-1.2 1.2-.6.1-.9-.2-.9-.7 0-.6.5-1.1 1.2-1.2z"/><path class="st2" d="M27.2 23c-.6 0-1.3-.1-1.8-.4l-.7-.4 1.4-2.8.7.3c.1.1.2.1.3.1 0-.1 0-.1.1-.3l1.2-6.7h.3c-.1-.2-.2-.5-.2-.8 0-1 .8-1.9 1.9-2 .5 0 .9.1 1.3.4.3.3.5.7.5 1.1 0 .3-.1.7-.3.9l-1.3 7.2c-.2 1-.5 2.9-3 3.2-.1.2-.3.2-.4.2zm2.5-8.6l-1 5.5c-.1.3-.2 1.1-.9 1.4.9-.2 1-.7 1.2-1.8l.9-5.2-.2.1zm.2-2.4zm.6-.3c-.2 0-.4.2-.4.3.2 0 .3-.2.4-.3z"/></g><g><path class="st2" d="M35.8 17.9l-.1 1.2-1.6.1v-.5H34c-.4.5-.9.7-1.6.8-1.2 0-1.8-.8-1.8-2.1 0-2.3 1.3-4.1 3.8-4.2.5 0 1.4.1 2.2.4l-.8 4.3zm-1.3-3.3c-.1-.1-.3-.1-.5-.1-1.1 0-1.4 1.6-1.4 2.5 0 .5.1 1 .7 1 .4 0 .7-.3.8-.7l.4-2.7z"/><path class="st2" d="M32.4 20.2c-.7 0-1.3-.2-1.7-.7-.5-.5-.8-1.3-.8-2.2 0-2.9 1.8-4.9 4.5-5 .6 0 1.6.1 2.5.4l.6.2-.9 5-.1 1.9-3 .1c-.3.1-.7.2-1 .2l-.1.1zm-.1-5.4c-.6.6-.9 1.4-.9 2.5 0 .5.1.9.3 1.1.1.1.2.2.7.2-.1 0-.1-.1-.2-.1-.4-.4-.5-1-.5-1.4.1-.8.2-1.6.6-2.3zm2.4 3.1h.2v.4h.1v-.6l.7-3.6c-.1 0-.2-.1-.4-.1h.1l-.6 3.5c0 .2-.1.3-.1.4z"/></g><g><path class="st2" d="M40.7 13.4l.4-2 1.9.1-1.2 6.6-.1 1.2H40v-.5h-.1c-.4.4-.9.7-1.5.6-1.5-.1-1.9-1.2-1.9-2.2 0-2.3 1.3-4 3.6-3.8.2-.1.4 0 .6 0zm-.3 1.4h-.3c-1.2-.1-1.7 1.2-1.7 2.3 0 .6.2 1 .6 1 .5 0 .8-.3.8-.6l.6-2.7z"/><path class="st2" d="M42.4 20.2l-3-.2c-.3.1-.7.1-1 .1-1.6-.1-2.7-1.3-2.7-3 0-1.5.5-2.8 1.4-3.6.8-.7 1.8-1.1 2.9-1l.3-1.9 3.5.2-1.4 7.4v2zm-3.6-5.9c-.2.1-.4.2-.6.4-.6.5-.9 1.4-.9 2.4 0 1.1.6 1.4.9 1.4-.3-.2-.6-.7-.6-1.5 0-1.1.3-2 .9-2.6.1 0 .2 0 .3-.1zm2 4.3l.1-.5 1-5.7h-.3l-.3 1.8-.6 3.5c0 .1-.1.2-.1.3h.2v.6zm-1.7-1.2z"/></g><g><path class="st2" d="M47.5 18.9l-.1 1.2-1.6-.2v-.5h-.1c-.4.4-.9.6-1.6.5-1.2-.2-1.8-1.1-1.8-2.4 0-2.3 1.3-3.9 3.7-3.6.5.1 1.3.3 2.2.7l-.7 4.3zm-1.3-3.5c-.1-.1-.3-.1-.5-.2-1-.1-1.4 1.4-1.4 2.3 0 .5.1 1 .7 1.1.4 0 .7-.2.8-.5l.4-2.7z"/><path class="st2" d="M48.2 21l-3.1-.4c-.3.1-.7.1-1 0-1.5-.2-2.5-1.4-2.5-3.1 0-1.5.5-2.7 1.4-3.5.8-.7 2-1 3.3-.9.6.1 1.5.3 2.5.8l.5.3-1 4.8-.1 2zm-1.6-1.8l.1-.4.7-3.6c-.1 0-.2-.1-.3-.1l-.6 3.3c0 .1-.1.3-.2.4l.3.1v.3zM44.3 15c-.1.1-.2.1-.3.2-.5.5-.8 1.3-.8 2.3 0 .8.3 1.3.8 1.5-.3-.3-.5-.7-.5-1.5 0-.2 0-1.7.8-2.5zm.7 2.9z"/></g><g><path class="st4" d="M13.3 27.5l.1-.1c.1 0 .1-.1.1-.1s.1 0 .1-.1c0 0 .1 0 .1-.1l.3 1.1.6-1.6.1-.1.1-.1s.1 0 .1-.1c0 0 .1 0 .1-.1l-.1 2.5-.1.1s-.1.1-.2.1-.2.1-.3.1l.1-1.5-.4 1.2-.1.1s-.1 0-.1.1h-.1-.1l-.2-.8-.2 1.5c-.1.1-.2.1-.3.2-.1 0-.2.1-.3.1l.7-2.4zM15.8 28.6c-.1 0-.2.1-.3.1l.2-2.6c.1 0 .1-.1.2-.1 0 0 .1 0 .1-.1 0 0 .1 0 .1-.1 0 0 .1 0 .2-.1l-.2 2.6c-.1.2-.2.2-.3.3zM16.7 25.6l.1-.1s.1 0 .1-.1h.2l.7 1.1.1-1.4c.1 0 .1-.1.2-.1 0 0 .1 0 .1-.1h.2l-.2 2.6s-.1 0-.1.1c0 0-.1 0-.1.1h-.1-.1l-.7-1.1L17 28c-.1.1-.2.1-.3.1-.1 0-.2.1-.3.1l.3-2.6zM20.1 25.6c0 .1 0 .2-.1.3l-.7.2v.5l.9-.3v.3c0 .1 0 .2-.1.3l-1.5.5.2-2.6 1.5-.5v.2c0 .1 0 .2-.1.3l-.8.3v.4l.7-.2v.3zM20.7 24.2c.1 0 .2-.1.3-.1.1 0 .2-.1.3-.1.1 0 .3-.1.4-.1h.3c.1 0 .2.1.2.2.1.1.1.2.1.4v.2c0 .1-.1.1-.1.2s-.1.1-.1.2-.1.1-.1.1l.5 1c-.1 0-.1 0-.2.1-.1 0-.1 0-.2.1h-.4l-.4-1.1.1-.1.1-.1c0-.1.1-.1.1-.2v-.2c0-.1 0-.2-.1-.2h-.2-.1l-.2 2.1c-.1.1-.2.1-.3.1h-.3l.3-2.5zM23.1 26.2h-.2-.1H22.5l1-2.7h.7l.6 2.4c-.1 0-.3.1-.4.1h-.1-.2l-.1-.5c-.1 0-.1.1-.2.1H23.2l-.1.6zm.7-2l-.3 1h.4l-.1-1zM25.2 23.3H25.8l-.2 2 .8-.1V25.8l-1.4.1.2-2.6zM27.1 25.7h-.3l.2-2.6H27.6l-.2 2.6h-.3zM29.5 25.3c0 .1 0 .2-.1.3l-1.7.1-.1-.1 1.2-2h-.9v-.1-.1-.1-.2l1.8-.1v.1l-1.1 2h.9v.2zM30.3 25.6h-.2-.1H29.7l1-2.6h.7l.6 2.6h-.4-.1-.2l-.1-.5h-.8l-.1.5zm.7-1.9l-.3.9h.4l-.1-.9zM33.1 23c.5 0 .8.2 1 .4.2.2.3.6.3 1 0 .5-.2.8-.4 1-.3.2-.6.3-1.1.2h-.3c-.1 0-.2 0-.3-.1l.2-2.6h.5c0 .1.1.1.1.1zm-.2 2.1s0 .1 0 0h.4c.1 0 .2-.1.2-.1l.2-.2c0-.1.1-.2.1-.4V24c0-.1-.1-.2-.1-.3-.1-.1-.1-.1-.2-.1s-.2-.1-.2-.1h-.1l-.3 1.6zM35 25.9h-.2-.1-.1c-.1 0-.1 0-.2-.1l1-2.5h.7l.6 2.7h-.4-.1-.2l-.1-.5H35.3c-.1 0-.1 0-.2-.1l-.1.5zm.7-1.9l-.3.9h.4l-.1-.9z"/><g><path class="st5" d="M13.2 27.5l.1-.1c.1 0 .1-.1.1-.1s.1 0 .1-.1c0 0 .1 0 .1-.1l.3 1.1.6-1.6.1-.1.1-.1s.1 0 .1-.1c0 0 .1 0 .1-.1l-.1 2.5-.1.1s-.1.1-.2.1-.2.1-.3.1l.1-1.5-.4 1.2-.1.1s-.1 0-.1.1h-.1-.1l-.2-.8-.2 1.5c-.1.1-.2.1-.3.2-.1 0-.2.1-.3.1l.7-2.4zM15.8 28.6c-.1 0-.2.1-.3.1l.2-2.6c.1 0 .1-.1.2-.1l.1-.1s.1 0 .1-.1c0 0 .1 0 .2-.1l-.2 2.6-.3.3zM16.7 25.7l.1-.1s.1 0 .1-.1h.2l.7 1.1.1-1.4c.1 0 .1-.1.2-.1 0 0 .1 0 .1-.1h.2l-.2 2.6s-.1 0-.1.1c0 0-.1 0-.1.1h-.1-.1l-.7-1.1L17 28c-.1.1-.2.1-.3.1-.1 0-.2.1-.3.1l.3-2.5zM20.1 25.6c0 .1 0 .2-.1.3l-.7.2v.5l.9-.3v.3c0 .1 0 .2-.1.3l-1.5.5.2-2.6 1.4-.5v.2c0 .1 0 .2-.1.3l-.8.3v.4l.7-.2c.1.1.1.2.1.3zM20.7 24.2c.1 0 .2-.1.3-.1.1 0 .2-.1.3-.1.1 0 .3-.1.4-.1h.3c.1 0 .2.1.2.2.1.1.1.2.1.4v.2c0 .1-.1.1-.1.2s-.1.1-.1.2-.1.1-.1.1l.5 1c-.1 0-.1 0-.2.1-.1 0-.1 0-.2.1h-.4l-.4-1.1.1-.1.1-.1c0-.1.1-.1.1-.2v-.2c0-.1 0-.2-.1-.2h-.2-.1l-.2 2.1c-.1.1-.2.1-.3.1h-.3l.3-2.5z"/><path class="st5" d="M23 26.2h-.2-.1H22.4l1-2.7h.7l.6 2.4c-.1 0-.3.1-.4.1h-.1-.2l-.1-.5c-.1 0-.1.1-.2.1H23.1l-.1.6zm.7-2l-.3 1h.4l-.1-1zM25.1 23.3H25.7l-.2 2 .8-.1V25.8l-1.5.2.3-2.7zM27 25.7h-.3l.2-2.6H27.5l-.2 2.6H27zM29.5 25.3c0 .1 0 .2-.1.3l-1.7.1-.1-.1 1.2-2h-.9v-.1-.1-.1-.2l1.8-.1v.1l-1.1 2h.9v.2zM30.3 25.6h-.2-.1H29.7l1-2.6h.7l.6 2.6h-.4-.1-.2l-.1-.5h-.8l-.1.5zm.6-1.9l-.3.9h.4l-.1-.9zM33.1 23c.5 0 .8.2 1 .4.2.2.3.6.3 1 0 .5-.2.8-.4 1-.3.2-.6.3-1.1.2h-.3c-.1 0-.2 0-.3-.1l.2-2.6h.5c-.1.1 0 .1.1.1zm-.3 2.1s.1 0 0 0h.4c.1 0 .2-.1.2-.1l.2-.2c0-.1.1-.2.1-.4V24c0-.1-.1-.2-.1-.3-.1-.1-.1-.1-.2-.1s-.2-.1-.2-.1h-.1l-.3 1.6zM35 25.9h-.2-.1-.1c-.1 0-.1 0-.2-.1l1-2.5h.7l.6 2.7h-.4-.1-.2l-.1-.5H35.3c-.1 0-.1 0-.2-.1l-.1.5zm.6-1.9l-.3.9h.4l-.1-.9z"/></g></g><g><path class="st6" d="M15.2 37.6h1.3l.1-.3h-1.3z"/><path class="st2" d="M35.4 30.4c-.1-.2-.3-.3-.5-.3H34c-.4 0-.7.2-1 .6l-.5.7c-.3-.4-.8-.6-1.3-.6h-1-.1-2c-.4 0-.8.2-1 .5 0-.1-.1-.2-.1-.3.3-.4.4-.8.4-.9 0-.3-.1-.4-.2-.5-.1-.1-.3-.2-.5-.2h-.2H25.8c0-.3 0-.6-.2-.9l-.3-.6c-.1-.1-.1-.2-.1-.2-.2-.3-.5-.4-.6-.4-.2 0-.5.1-.6.4-.1.1-.3.6-.5.8-.1.3-.2.6-.2.9H22.7 22.4c-.2 0-.4.1-.5.3.1 0 .1.2.1.4 0 .1.1.5.4.8-.1-.1-.2-.1-.4-.1h-1.2c-.2 0-.3.1-.4.2-.1.1-.1.2-.2.3-.2-.3-.6-.4-.9-.4H19v-.1c0-.3-.3-.6-.6-.6h-1.3c-.2 0-.3.1-.4.2-.1.1-.2.3-.2.4v3.1c-.2-.3-.6-.5-1-.5h-.4c-.3 0-.6.3-.6.6v.8c0 .4.1.7.3 1 .4.5 1.1.9 1.8.9s1.4-.3 1.9-.8c.4.5 1.1.8 1.8.8.4 0 .9-.1 1.3-.3.1.1.3.2.4.2h.3c.5 0 1-.4 1.1-1v-.2l.2.6c.1.3.4.6.8.6.3 0 .7-.2.8-.5l.2-.6c.2.6.8 1.1 1.5 1.1h.4c.1 0 .2 0 .3-.1.1.1.3.1.4.1h3c.4 0 .7-.2.9-.5l.2-.4.1.1c.3.5.8.8 1.3.8h1c.2 0 .4-.1.5-.3.1-.2.1-.4 0-.6l-1.5-2.3 1.6-2.3c.4-.3.4-.5.3-.7z"/><path class="st5" d="M18.4 32.5v-1.9h-1.3v4.3c0 .2-.3.3-.5.3s-.4-.1-.4-.3v-.3c0-.4-.3-.7-.8-.7H15v.7c0 .3.1.5.2.7.3.4.8.6 1.4.6.8 0 1.7-.5 1.7-1.3l.1-2.1zM33.5 33.8l-.4-.5 1.1-1.6.4-.6.3-.5H34c-.2 0-.4.1-.5.3l-1 1.5-.4-.7c-.2-.3-.5-.4-.8-.4h-1l.2.3 1 1.6.2.3-.7 1.2-.4.6-.3.5h.9c.2 0 .4-.1.4-.2l.7-1.1.6.8c.2.3.5.5.9.5h1l-.2-.3-1.1-1.7zM27.4 35.6l-.3-1.9-.3-1.7-.1-.4-.1-.4H26c-.3 0-.6.2-.7.5l-.5 1.5s0 .1-.1.1h-.1l-.6-1.5c-.1-.3-.4-.5-.7-.5h-.6l-.1.4-.1.5-.4 2.5-.2 1v.1h.3c.3 0 .5-.2.5-.5l.4-2s0-.1.1-.1c0 0 .1 0 .1.1l.9 2.3c0 .1.1.2.2.2s.2-.1.2-.2l.8-2.4s0-.1.1-.1c0 0 .1 0 .1.1l.3 1.6c.1.5.5.9 1 .9l.5-.1zM29 31.9H30.2v-.6h-1.9c-.4 0-.7.3-.7.7V35.2c0 .1 0 .2.1.3.1.2.3.4.6.4h1.9v-.6H29c-.1 0-.2-.1-.2-.2v-1c0-.1.1-.1.1-.1h.8c.3 0 .5-.2.5-.5v-.1H29c-.1 0-.1-.1-.1-.1v-1c-.1-.3 0-.4.1-.4z"/><path class="st5" d="M22 32v-.8H20.9V34.9c0 .2-.2.3-.4.3s-.4-.1-.4-.3v-2.8c0-.4-.3-.7-.7-.7h-.5v3.4c0 .8.8 1.3 1.6 1.3s1.6-.5 1.6-1.3V32z"/><path d="M26.8 29.8c-.5.1-.6-.1-1.1 0-.3 0-.5.3-.7.6-.1.1-.1.3-.2.3 0-.2.1-.6.4-.9.2-.2.3-.8.1-1.2-.1-.3-.4-.7-.5-.8-.1-.1-.1 0-.1 0s-.3.6-.5.8c-.2.4-.1.9.1 1.2.3.4.3.7.4.9-.1-.1-.1-.3-.2-.4-.1-.3-.4-.5-.7-.5-.5-.1-.8.1-1.1 0-.2-.1-.1.1-.1.1s0 .4.5.8c.6.4 1.1.2 1.3.2.1 0 .3.1.3.2v.5c0 .2.1.1.1 0v-.5c0-.2.2-.2.3-.2.2 0 .6.3 1.3-.2.5-.3.5-.8.5-.8.1-.1 0-.1-.1-.1zm-2.4.8c-.3-.2-.6-.3-.7-.3-.4-.1-.5-.1-.6-.2-.1-.1 0-.1 0 0 .2.1.2.1.6.1.4.1.6.3.7.4 0 .1 0 .1 0 0zm.4-.6s-.1-.4-.1-.8c0-.5 0-.8.1-.8 0 0 .1.4.1.8-.1.4-.1.8-.1.8zm1.7.2c-.1.1-.2.2-.6.2-.2 0-.5 0-.7.3 0 0-.1 0 0 0 0-.1.3-.3.8-.4.2-.1.3-.1.5-.1 0-.1 0-.1 0 0z" fill="#0bb14e"/><path class="st2" d="M38.2 37.7c0 .4-.3.7-.7.7-.4 0-.7-.3-.7-.7 0-.4.3-.7.7-.7.4 0 .7.3.7.7zM23.6 37.3h1.2v2.4h-1.2z"/><path class="st2" d="M38.2 36.1c-.1-.1-.2-.2-.4-.3 0-.1 0-.1.1-.2.1-.3 0-.5-.1-.7l-.3-.3c.1-.1.1-.2.1-.3 0-.2 0-.4-.1-.5-.1-.2-.2-.3-.4-.3H37c-.3 0-.6.2-.7.5 0 .2 0 .4.1.5l.1.1c-.3.1-.5.4-.5.6v.5c-.3 0-.6.2-.9.4h-.5c-.4 0-.8.1-1.2.3l.1-.2H23.7c-1.1 0-1.4.7-1.4 1l-.3 2c-.1.5-.2.5-.3.5v-.3l.4-2c.1-.3 0-.6-.1-.7-.2-.3-.7-.4-.9-.4h-.7l-.3.7c-.1-.1-.1-.2-.2-.3-.3-.3-.7-.4-1.5-.4h-4.5l-.7 3.8c0 .1-.1.6.1.9.1.2.4.4 1 .4h.5l.3-1.7h.8l-.3 1.7h.9c.7 0 1-.4 1.1-.7l1.7 2.6s.6.8 1.5.8c.3 0 .6-.1.9-.3.2-.1.2-.3.2-.4 0-.1-.1-.3-.4-.4-.1 0-.4-.3-.6-.5l-1.7-2.7c.2-.1.3-.2.4-.3-.1.6 0 1 .3 1.4.4.6 1.2.6 1.5.6.6 0 1.1-.2 1.6-.6.4-.4.7-.8.8-1.6L24 38h.3l-.3 2.2c0 .1-.1.5.2.8.1.2.4.4.8.4h8.1c.2 0 .4.1.6.1 1.5 0 2.8-1.2 3.1-2.6 0-.3.1-.5 0-.8.2-.2.4-.4.5-.7v-.2h.2c.3 0 .6-.2.7-.5.1-.3.1-.5 0-.6z"/><path class="st5" d="M13.7 40.1l.6-3.5h2.4l-.2 1h-1.3l-.1.7h1.3l-.2 1h-1.3l-.3 1.7h-.2c-.9 0-.7-.9-.7-.9zm3 .8h-.4l.8-4.3h1.4c.8 0 1 .1 1.3.3.3.3.4.7.3 1.2-.1.5-.5 1.2-1.3 1.4l2 3.2s.6.7 1 .7h.1c-1.2.6-2-.4-2-.4l-2.2-3.5-.2.8c0 .1 0 .6-.8.6zm1.1-2.1h.4c.7 0 .8-.4.8-.6.1-.4-.2-.6-.6-.6H18l-.2 1.2zm3.9-1.6l-.4 2c-.1.3-.1.8.4.8.6 0 .6-.5.7-.8l.4-2s0-.7 1-.7h.2l-.5 2.6c-.1.7-.3 1.1-.7 1.3-.3.3-.8.5-1.3.5-.3 0-.9-.1-1.2-.5-.3-.4-.3-.7-.2-1.3l.5-2.6h.3c.1.1 1 0 .8.7zm2.8 3l.5-2.7h-.8l.2-1H27l-.2 1h-.7l-.6 3.4h-.4c-.8 0-.6-.7-.6-.7zm1.6 0l2-2.7h-1l.2-1h2.2l-.2.9-1.8 2.5h1.2l-.7 1h-2.1l.2-.7zm6 .3c-.2-.2-.3-.4-.4-.6h-1.5l1.8-2.5.7-.9h-2.9l-.2 1h1.1l-2.5 3.4H32.3c.1-.1-.1-.3-.2-.4zm4.9-6.2c.1 0 .3-.1.3-.2s-.1-.3-.2-.3-.3.1-.3.2c-.1.2 0 .3.2.3zm-.6 1.7c-.4-.1-.8.1-1 .5-.2-.1-.4-.1-.7-.1-1.2 0-2 .8-2.4 1.4-.2.3-.3.6-.3.9-.2 1.1.5 2.2 1.9 2.2 1.3 0 2.5-1.1 2.7-2.3.1-.3 0-.6 0-.9.3-.1.4-.3.5-.6.1-.5-.2-1-.7-1.1zm-.9 2.7c-.1.6-.6 1.3-1.4 1.3-.7 0-1.1-.6-1-1.3.1-.6.6-1.3 1.4-1.3.8 0 1.1.7 1 1.3zm1.6-3.9c-.3-.1-.6.1-.7.4-.1.3.1.6.4.7.3.1.6-.1.7-.4.1-.3-.1-.6-.4-.7zm.7 1.3c-.1 0-.3.1-.3.2s.1.3.2.3.3-.1.3-.2-.1-.2-.2-.3z"/><path class="st6" d="M25.4 40.7c-.8 0-.6-.7-.6-.7l.5-2.7h-.8l.1-.7h-.2l-.2 1h.8l-.5 2.7s-.2.7.6.7h.4v-.2l-.1-.1zM22.3 39.7c.3-.1.4-.5.4-.8l.4-2s0-.1.1-.3c-.3.2-.3.5-.3.5l-.4 2c0 .3-.1.4-.2.6zM26.9 37.3h-.8v.2h.7zM36.7 35.8c.1 0 .2.1.3.1.2 0 .5-.1.6-.3-.1.1-.2.1-.4 0-.3-.1-.5-.4-.4-.7v-.1c-.1.1-.3.2-.3.4-.1.2 0 .4.2.6zM35.2 39.4c.3-.3.5-.7.6-1 .1-.6-.2-1.3-.9-1.3-.5 0-.8.2-1.1.6.2-.2.5-.3.8-.3.8 0 1.1.7.9 1.3 0 .2-.2.5-.3.7z"/><path class="st6" d="M34.2 40.7c-1.4 0-2.1-1.1-1.9-2.2l.3-.9c.1-.1.2-.3.3-.4-.3.2-.4.5-.6.7-.2.3-.3.6-.3.9-.1.5 0 1 .3 1.4 0 0 0 .1.1.1.1.1.2.2.4.3.3.2.7.3 1.2.3.8 0 1.6-.4 2.1-1-.6.5-1.3.8-1.9.8zM29 40.6h-.4l2.5-3.4H30l.1-.7h-.2l-.2 1h1.1l-2.5 3.4H32.4c-.1-.1-.2-.2-.3-.2l-3.1-.1zM26.2 40.6l.2-.7 1.9-2.6h-.9l.1-.8h-.2l-.2 1h1l-2 2.7-.1.7h2l.2-.3zM37.9 36.4c-.1 0-.2-.1-.2-.3-.1 0-.2.1-.2.2s.1.3.2.3c.1.1.2 0 .2-.2.1 0 .1 0 0 0 .1 0 0 0 0 0zM21.9 40.7c-.3 0-.9-.1-1.2-.5-.3-.4-.3-.7-.2-1.3l.4-2.4h-.2l-.5 2.6c-.1.6-.1.9.2 1.3.3.4.8.5 1.2.5.5 0 1-.2 1.3-.5l.2-.2c-.3.4-.7.5-1.2.5z"/><path class="st5" d="M37.5 37.7v-.1h.1s.1 0 .1.1h-.2zm0 .1l.2.2h.1l-.1-.2c.1 0 .1 0 .1-.1s-.1-.2-.2-.2h-.2v.5h.1v-.2zm.5-.1c0-.3-.2-.5-.5-.5-.2 0-.5.2-.5.5s.2.5.5.5.5-.2.5-.5zm-.1 0c0 .2-.2.4-.3.4-.2 0-.3-.1-.3-.4 0-.2.1-.4.3-.4.1 0 .3.2.3.4z"/><path class="st6" d="M15.2 37.6h1.3l.1-.3h-1.3zM15 39.1l-.1.2h1.3v-.2zM14 39.9l.6-3.2h-.2l-.6 3.5s-.3.9.7.9h.2v-.3c-1-.1-.7-.9-.7-.9zM21.8 43.3h-.2c-.9.2-1.5-.6-1.5-.6l-2.5-3.4v.2l2.3 3.5s.8 1 1.9.3c.1.1 0 0 0 0zM17 40.7h-.4l.7-4.1h-.2l-.8 4.4h.4c.4 0 .6-.2.7-.3H17z"/></g><g><path class="st8" d="M8.1 17.9L7 26.2l-1.4 1-1.5-3.1-.6 4.6L1.9 30 3 21.6l1.5-1.1 1.4 3.1.6-4.6 1.6-1.1zM12.4 22.2l-.1 1.3-1.4.8v-.5h-.1c-.4.7-.8 1.1-1.4 1.5-1.1.6-1.6-.1-1.6-1.3 0-2.3 1.2-4.6 3.3-5.8.4-.2 1.2-.5 2-.6l-.7 4.6zm-1.2-2.8c-.1 0-.3.1-.5.2-.9.5-1.3 2.2-1.3 3.2 0 .5.1.9.6.7.3-.2.6-.6.7-1l.5-3.1zM14.7 22.5l-1.8.7.8-5v-1.1l1.4-.6v.8c.4-.9 1-1.4 1.4-1.5.3-.1.6-.2.9-.1l-.4 1.7c-.2 0-.5 0-.7.1-.5.2-.8.6-.9 1.2l-.7 3.8z"/><path class="st8" d="M21.6 19.1l-.1 1.2-1.5.5v-.5h-.1c-.4.6-.9 1-1.6 1.2-1.2.3-1.7-.4-1.7-1.6 0-2.3 1.3-4.4 3.6-5.1.5-.1 1.3-.3 2.1-.2l-.7 4.5zm-1.2-3c-.1 0-.3 0-.5.1-1 .3-1.4 2-1.4 2.9 0 .5.1 1 .7.8.4-.1.6-.4.8-.9l.4-2.9zM22.1 20.2l.8-4.8.1-1.2 1.6-.3v.6c.4-.6 1-1 1.8-1.1 1-.2 1.5.2 1.5 1.1 0 .2 0 .4-.1.6l-.7 4.1-1.9.3.6-3.5c0-.2.1-.5.1-.7 0-.2-.1-.5-.4-.4-.5.1-.8.5-.9 1l-.6 4-1.9.3z"/><path class="st8" d="M29 13.4l1.9-.2-1.1 6.2c-.2 1.2-.5 2.3-2.3 2.5-.6.1-1.3 0-1.8-.3l.7-1.4c.2.1.5.2.7.1.4 0 .6-.3.7-.9l1.2-6zm1.4-2.8c.5-.1.9.3.9.7 0 .6-.5 1.1-1.2 1.2-.6.1-.9-.2-.9-.7 0-.5.5-1.1 1.2-1.2zM35.8 17.6l-.1 1.2-1.6.1v-.5H34c-.4.5-.9.7-1.6.8-1.2 0-1.8-.8-1.8-2.1 0-2.3 1.3-4.1 3.8-4.2.5 0 1.4.1 2.2.4l-.8 4.3zm-1.3-3.3c-.1-.1-.3-.1-.5-.1-1.1 0-1.4 1.6-1.4 2.5 0 .5.1 1 .7 1 .4 0 .7-.3.8-.7l.4-2.7zM40.7 13.2l.4-2 1.9.1-1.2 6.6-.1 1.2H40v-.5h-.1c-.4.4-.9.7-1.5.6-1.5-.1-1.9-1.2-1.9-2.2 0-2.3 1.3-4 3.6-3.8.2-.1.4-.1.6 0zm-.3 1.3h-.3c-1.2-.1-1.7 1.2-1.7 2.3 0 .6.2 1 .6 1 .5 0 .8-.3.8-.6l.6-2.7zM47.5 18.7l-.1 1.2-1.6-.2v-.5h-.1c-.4.4-.9.6-1.6.5-1.2-.2-1.8-1.1-1.8-2.4 0-2.3 1.3-3.9 3.7-3.6.5.1 1.3.3 2.2.7l-.7 4.3zm-1.3-3.5c-.1-.1-.3-.1-.5-.2-1-.1-1.4 1.4-1.4 2.3 0 .5.1 1 .7 1.1.4 0 .7-.2.8-.5l.4-2.7z"/></g></svg>